<svg width="24" height="24" viewBox="0 0 24 24" fill="none" xmlns="http://www.w3.org/2000/svg">
<g clip-path="url(#clip0_3_9)">
<path d="M11.39 0.605C10.376 3.092 9.764 4.72 8.635 7.132C9.328 7.866 10.178 8.721 11.558 9.686C10.074 9.076 9.062 8.462 8.306 7.826C6.86 10.842 4.596 15.138 0 23.395C3.612 21.31 6.412 20.025 9.021 19.533C8.90328 19.0259 8.84588 18.5066 8.85 17.986L8.853 17.871C8.911 15.556 10.114 13.776 11.54 13.898C12.966 14.018 14.074 15.994 14.018 18.307C14.0093 18.7251 13.9604 19.1413 13.872 19.55C16.452 20.055 19.224 21.337 22.786 23.394C22.084 22.101 21.456 20.935 20.857 19.824C19.914 19.094 18.931 18.142 16.924 17.111C18.304 17.47 19.291 17.883 20.061 18.345C13.971 7.011 13.478 5.505 11.39 0.605ZM22.898 21.36V20.737H22.664V20.653H23.226V20.737H22.992V21.36H23.323V20.653H23.465L23.632 21.153L23.666 21.26C23.6777 21.2217 23.6903 21.1837 23.704 21.146L23.874 20.653H24V21.36H23.909V20.767L23.703 21.36H23.619L23.414 20.758V21.36H23.323" fill="#1793D1"/>
</g>
<defs>
<clipPath id="clip0_3_9">
<rect width="24" height="24" fill="white"/>
</clipPath>
</defs>
</svg>
