<svg width="24" height="24" viewBox="0 0 24 24" fill="none" xmlns="http://www.w3.org/2000/svg">
<path d="M11.989 22.4557L4.63814 20.4109L3 2H21L19.3602 20.408L11.989 22.4557Z" fill="#264DE4"/>
<path d="M17.9563 19.2359L19.3576 3.50532H12V20.8905L17.9563 19.2359Z" fill="#2965F1"/>
<path d="M6.75537 10.3337L6.9573 12.5917H12V10.3337H6.75537ZM6.34952 5.76342L6.55435 8.02144H12V5.76342H6.34952ZM12 16.198L11.9901 16.2006L9.48052 15.5216L9.32007 13.7207H7.05799L7.37367 17.2662L11.9896 18.5501L12 18.5473V16.198Z" fill="#EBEBEB"/>
<path d="M17.2302 10.3337L17.637 5.76342H11.9922V8.02144H15.1675L14.9624 10.3337H11.9922V12.5917H14.7671L14.5054 15.5202L11.9922 16.1999V18.5491L16.6118 17.2662L16.6457 16.8847L17.1753 10.94L17.2302 10.3337Z" fill="white"/>
</svg>
