<svg width="24" height="18" viewBox="0 0 24 18" fill="none" xmlns="http://www.w3.org/2000/svg">
<g clip-path="url(#clip0_16_2)">
<path d="M1.64075 18H5.46917V8.74286L0 4.62857V16.3607C0 17.2607 0.739946 18 1.64075 18Z" fill="#4285F4"/>
<path d="M18.563 18H22.3914C23.2922 18 24.0322 17.2607 24.0322 16.3607V4.62857L18.563 8.71071" fill="#34A853"/>
<path d="M18.563 1.63929V8.74286L24.0322 4.66071V2.44286C24.0322 0.417857 21.7158 -0.739286 20.1072 0.482143" fill="#FBBC04"/>
<path d="M5.46916 8.74286V1.63929L12.0322 6.55714L18.563 1.63929V8.74286L12 13.6286" fill="#EA4335"/>
<path d="M0 2.44286V4.62857L5.46917 8.71071V1.63929L3.92493 0.482143C2.31635 -0.707143 0 0.45 0 2.44286Z" fill="#C5221F"/>
</g>
<defs>
<clipPath id="clip0_16_2">
<rect width="24" height="18" fill="white"/>
</clipPath>
</defs>
</svg>
