<svg width="24" height="20" viewBox="0 0 24 20" fill="none" xmlns="http://www.w3.org/2000/svg">
<g clip-path="url(#clip0_15_2)">
<path d="M22.8223 18.7089C22.8738 18.7094 22.9249 18.6996 22.9723 18.68C23.0197 18.6604 23.0625 18.6315 23.0981 18.5951C23.1336 18.5587 23.1611 18.5155 23.1789 18.4682C23.1966 18.421 23.2042 18.3707 23.2013 18.3204C23.2013 18.0449 23.0312 17.9132 22.6823 17.9132H22.1185V19.3558H22.3306V18.727H22.5911L22.5971 18.7347L23.0015 19.3558H23.2282L22.7932 18.7129L22.8223 18.7089ZM22.5771 18.5644H22.3312V18.0767H22.6428C22.8038 18.0767 22.9874 18.1024 22.9874 18.3085C22.9874 18.5455 22.8016 18.5644 22.5758 18.5644" fill="#0A66C2"/>
<path d="M17.2909 16.9011H14.284V12.2983C14.284 11.2007 14.2639 9.78783 12.7201 9.78783C11.154 9.78783 10.9144 10.9837 10.9144 12.2184V16.9008H7.90749V7.43563H10.7941V8.72914H10.8345C11.1234 8.24635 11.5408 7.84918 12.0424 7.57993C12.5439 7.31069 13.1108 7.17945 13.6826 7.2002C16.7302 7.2002 17.2921 9.1596 17.2921 11.7087L17.2909 16.9011ZM4.51472 6.14181C4.16961 6.14187 3.83221 6.0419 3.54523 5.85454C3.25824 5.66717 3.03455 5.40083 2.90243 5.0892C2.7703 4.77756 2.73567 4.43463 2.80294 4.10377C2.87021 3.7729 3.03635 3.46896 3.28034 3.23039C3.52433 2.99181 3.83522 2.82932 4.17369 2.76345C4.51216 2.69758 4.86301 2.73129 5.18188 2.86033C5.50075 2.98936 5.77331 3.20793 5.96509 3.48838C6.15688 3.76883 6.25929 4.09857 6.25935 4.43591C6.25939 4.65989 6.21429 4.88169 6.12663 5.08863C6.03898 5.29558 5.9105 5.48363 5.74849 5.64204C5.58649 5.80044 5.39414 5.92611 5.18245 6.01186C4.97076 6.09761 4.74387 6.14177 4.51472 6.14181ZM6.01816 16.9011H3.00815V7.43563H6.01816V16.9011ZM18.7899 0.00122515H1.49719C1.10469 -0.00310432 0.726477 0.145056 0.445682 0.413149C0.164887 0.681242 0.00448503 1.04733 -0.000305176 1.43098V18.404C0.00432108 18.7878 0.164629 19.1542 0.445415 19.4226C0.7262 19.6909 1.1045 19.8394 1.49719 19.8353H18.7899C19.1834 19.8401 19.5628 19.6921 19.8447 19.4237C20.1265 19.1554 20.2879 18.7886 20.2934 18.404V1.42975C20.2878 1.04535 20.1263 0.67884 19.8444 0.410754C19.5625 0.142667 19.1832 -0.00506981 18.7899 3.13146e-08" fill="#0A66C2"/>
<path d="M22.6028 17.2706C22.2369 17.2741 21.8874 17.419 21.6305 17.6736C21.3737 17.9283 21.2305 18.2721 21.2323 18.6297C21.234 18.9873 21.3806 19.3296 21.6399 19.5819C21.8993 19.8341 22.2502 19.9758 22.6161 19.9758C22.9819 19.9758 23.3329 19.8341 23.5922 19.5819C23.8515 19.3296 23.9981 18.9873 23.9999 18.6297C24.0016 18.2721 23.8584 17.9283 23.6016 17.6736C23.3448 17.419 22.9952 17.2741 22.6294 17.2706H22.6028ZM22.6028 19.8209C22.3628 19.8248 22.1271 19.7591 21.9253 19.632C21.7236 19.5049 21.5649 19.3223 21.4694 19.1071C21.3739 18.8919 21.3458 18.6538 21.3887 18.423C21.4316 18.1922 21.5436 17.979 21.7104 17.8104C21.8773 17.6418 22.0915 17.5254 22.3261 17.4758C22.5606 17.4262 22.805 17.4457 23.0282 17.5318C23.2514 17.618 23.4435 17.7669 23.5801 17.9597C23.7168 18.1526 23.7918 18.3807 23.7958 18.6153C23.7958 18.622 23.7958 18.6284 23.7958 18.6352C23.8025 18.9428 23.6839 19.2405 23.4661 19.4628C23.2483 19.685 22.9492 19.8136 22.6344 19.8203H22.6031" fill="#0A66C2"/>
</g>
<defs>
<clipPath id="clip0_15_2">
<rect width="24" height="20" fill="white"/>
</clipPath>
</defs>
</svg>
