<svg width="24" height="24" viewBox="0 0 24 24" fill="none" xmlns="http://www.w3.org/2000/svg">
<g clip-path="url(#clip0_3_7)">
<path d="M12.2656 0.168C11.8383 0.168 11.498 0.5231 11.498 0.9453C11.498 1.3675 11.8493 1.7129 12.2715 1.7129C12.2983 1.6985 12.3335 1.7089 12.3633 1.707C16.3382 1.707 19.7415 4.6522 20.3027 8.586C20.3594 8.9721 20.6886 9.25 21.0645 9.25C21.5321 9.25 21.8973 8.8416 21.8281 8.3691C21.1588 3.6786 17.0963 0.168 12.3594 0.168H12.2656ZM11.9629 3.2246C10.2091 3.2246 8.4566 3.8924 7.123 5.2286C5.7483 6.6033 5.0465 8.4479 5.129 10.3633C3.9859 10.6568 2.8998 11.2428 2.004 12.1387C-0.668304 14.8109 -0.668304 19.1571 2.004 21.8242C3.3375 23.1578 5.0939 23.8262 6.8496 23.8262C8.6054 23.8262 10.3546 23.1578 11.6934 21.8242C11.8014 21.7161 11.9009 21.5976 12.0039 21.4844C13.2602 22.9209 15.0979 23.832 17.1523 23.832C20.9316 23.832 24 20.7585 24 16.9844C24 13.8333 21.8057 11.0844 18.7988 10.3379C18.8709 8.4946 18.2123 6.629 16.8066 5.2285C15.4706 3.8924 13.7167 3.2246 11.9629 3.2246ZM15.7149 6.332C17.7847 8.4019 17.7847 11.7674 15.7149 13.832C15.4111 14.1358 15.4111 14.6252 15.7149 14.9238C16.0122 15.2212 16.5022 15.2283 16.8067 14.9238C17.682 14.0485 18.2639 12.9988 18.5625 11.8868C20.8177 12.5148 22.4551 14.6051 22.4551 16.9941C22.4551 19.9187 20.0769 22.2969 17.1524 22.2949C14.2279 22.2929 11.8497 19.9129 11.8497 16.9883C11.8497 16.5609 11.5036 16.2168 11.0762 16.2168C10.9748 16.2166 10.8744 16.2364 10.7807 16.2751C10.687 16.3138 10.6019 16.3706 10.5302 16.4423C10.4585 16.514 10.4017 16.5991 10.363 16.6928C10.3243 16.7865 10.3045 16.8869 10.3047 16.9883C10.3047 18.1365 10.5924 19.2193 11.0918 20.1719C10.9425 20.3727 10.7838 20.5619 10.6036 20.7422C8.5337 22.812 5.1663 22.812 3.1016 20.7422C1.0318 18.6724 1.0318 15.3101 3.1016 13.2402C5.1714 11.1704 8.5337 11.1704 10.6036 13.2402C10.9073 13.544 11.3948 13.544 11.6934 13.2402C11.992 12.9365 11.9972 12.4471 11.6934 12.1484C10.3084 10.7634 8.4757 10.1048 6.6582 10.1562C6.6376 8.7249 7.1832 7.3566 8.2129 6.332C9.2479 5.2971 10.6069 4.7793 11.9649 4.7793C13.3229 4.7793 14.6799 5.2971 15.7149 6.332ZM12.1583 6.3828C11.7309 6.3828 11.3907 6.738 11.3907 7.1602C11.3907 7.599 11.7462 7.9277 12.1895 7.9277C13.2347 7.9277 14.0933 8.7771 14.1035 9.8223C14.1035 10.2445 14.4548 10.5898 14.8815 10.5898C15.3082 10.5898 15.6485 10.2347 15.6485 9.8125C15.6382 8.8909 15.2724 8.0205 14.6133 7.3715C13.9543 6.7223 13.0902 6.3725 12.1583 6.3828Z" fill="#126ED3"/>
</g>
<defs>
<clipPath id="clip0_3_7">
<rect width="24" height="24" fill="white"/>
</clipPath>
</defs>
</svg>
