<svg width="24" height="24" viewBox="0 0 24 24" fill="none" xmlns="http://www.w3.org/2000/svg">
<g clip-path="url(#clip0_1_29)">
<path d="M14.8806 11.2041L10.0742 12.7734L5.89294 14.6188L4.72294 14.9278C4.41413 15.2227 4.09797 15.5098 3.77475 15.7888C3.40425 16.1083 3.05925 16.3991 2.79413 16.6097C2.49975 16.8422 2.06381 17.2781 1.84219 17.5543C1.51144 17.9685 1.25006 18.408 1.13738 18.7459C0.937501 19.3562 1.03575 19.9738 1.42069 20.5442C1.91494 21.2708 2.89931 22.0119 4.04719 22.5167C4.63219 22.7749 5.61656 23.1054 6.35794 23.2905C7.58925 23.6031 9.97256 23.9411 11.2839 23.9918C11.5491 24.0028 11.9051 24.0028 11.9196 23.9918C11.9488 23.9736 12.1523 23.5849 12.3885 23.1019C13.1948 21.456 13.776 19.9121 14.0923 18.5933C14.2811 17.7941 14.43 16.7297 14.5281 15.4691C14.5536 15.1166 14.5644 13.9359 14.5427 13.5364C14.5099 12.8826 14.4518 12.3521 14.3608 11.8328C14.3464 11.7563 14.3428 11.6873 14.3501 11.6835C14.3646 11.6728 14.4083 11.6582 15.0004 11.4874L14.8806 11.2041ZM13.7835 11.8472C13.8272 11.8472 13.9433 12.9623 13.9723 13.6671C13.9796 13.8161 13.9761 13.9142 13.9686 13.9142C13.9397 13.9142 13.3547 13.5692 12.9371 13.3074C12.5738 13.0787 11.8834 12.621 11.7746 12.5336C11.7381 12.5083 11.7416 12.5046 12.0396 12.4029C12.5445 12.2323 13.7436 11.847 13.7833 11.847L13.7835 11.8472ZM11.3348 12.6534C11.3676 12.6534 11.451 12.7007 11.6509 12.8243C12.3992 13.293 13.4166 13.8598 13.8525 14.0486C13.9868 14.1068 14.0014 14.0848 13.6926 14.2958C13.0314 14.7461 12.2068 15.1894 11.1969 15.6362C11.0188 15.7161 10.8698 15.7778 10.8662 15.7778C10.8589 15.7778 10.8808 15.687 10.9099 15.5781C11.1531 14.6734 11.2913 13.758 11.2986 13.0241C11.3023 12.6608 11.3023 12.6608 11.3349 12.6499C11.3274 12.6536 11.3312 12.6536 11.3349 12.6536L11.3348 12.6534ZM10.83 12.846C10.8518 12.8679 10.8371 13.6817 10.8081 13.9033C10.7429 14.4388 10.6311 14.9675 10.4739 15.4836C10.434 15.618 10.3976 15.7307 10.3903 15.7378C10.3757 15.756 9.87806 15.2691 9.71456 15.0803C9.43125 14.7533 9.20963 14.4264 9.04613 14.1068C8.96269 13.9433 8.83181 13.6236 8.84269 13.6127C8.90081 13.5726 10.8154 12.8316 10.83 12.846ZM8.454 13.7798C8.45756 13.7798 8.46113 13.7798 8.46488 13.7833C8.47219 13.7906 8.49769 13.8489 8.51944 13.9142C8.63569 14.2301 8.89706 14.6951 9.12244 14.9931C9.36956 15.3201 9.69281 15.669 9.96169 15.8978C10.0489 15.9703 10.1288 16.0393 10.1396 16.0502C10.1614 16.0721 10.1687 16.0684 9.57638 16.2938C8.89013 16.5553 8.14163 16.8169 7.28419 17.0929C7.07938 17.1589 6.87475 17.2255 6.67031 17.2928C6.6375 17.3036 6.64856 17.2853 6.74288 17.1364C7.16794 16.4719 7.81444 15.1676 8.17781 14.2448C8.23969 14.0848 8.30156 13.9251 8.31244 13.8887C8.32688 13.8379 8.34506 13.8197 8.39213 13.7942C8.41763 13.7871 8.44313 13.7798 8.454 13.7798ZM7.72744 14.0813C7.73831 14.0886 7.55306 14.4773 7.37138 14.8331C7.01888 15.5199 6.63394 16.1957 6.11813 17.0168C6.03075 17.1583 5.9475 17.2892 5.93625 17.3036C5.91825 17.3291 5.91113 17.3218 5.85281 17.2093C5.72925 16.9658 5.62763 16.6534 5.57306 16.3663C5.51869 16.083 5.52956 15.5889 5.59144 15.2837C5.63831 15.0587 5.63494 15.0623 5.74388 15.0077C6.20888 14.7714 7.71281 14.0668 7.72744 14.0813ZM13.9941 14.3357V14.4881C13.9941 15.2983 13.9069 16.41 13.7798 17.22C13.758 17.3618 13.7398 17.478 13.7363 17.4818C13.7363 17.4818 13.6309 17.4527 13.5075 17.4163C12.9285 17.2325 12.3687 16.9928 11.8361 16.7006C11.4836 16.5081 10.9718 16.1919 10.9862 16.1775C10.9898 16.1738 11.1424 16.0939 11.3203 15.9994C12.0324 15.6289 12.7153 15.2293 13.3076 14.8331C13.5293 14.6843 13.8634 14.4446 13.9359 14.3792L13.9941 14.3357ZM4.98469 15.4108C4.99913 15.4108 4.99538 15.4399 4.97363 15.5708C4.9555 15.6997 4.94218 15.8293 4.93369 15.9593C4.90463 16.4899 4.99181 16.8823 5.25338 17.4199C5.32613 17.5688 5.38425 17.6923 5.3805 17.6959C5.35519 17.7178 2.95013 18.4226 2.1945 18.6296C1.96931 18.6915 1.77319 18.7459 1.75856 18.7494C1.73306 18.7569 1.7295 18.7532 1.74038 18.6913C1.824 18.1573 2.23088 17.4598 2.79769 16.8713C3.17531 16.4788 3.477 16.2501 3.99281 15.9559C4.36331 15.7451 4.93369 15.429 4.97719 15.4146C4.97719 15.4108 4.98094 15.4108 4.98469 15.4108ZM10.6519 16.4244C10.6556 16.4207 10.7426 16.4681 10.848 16.5298C11.6256 16.9804 12.708 17.3981 13.6307 17.6124L13.7143 17.6306L13.5981 17.6961C13.1151 17.9649 11.5273 18.6261 9.90356 19.2326C9.66731 19.3198 9.43481 19.407 9.39131 19.4252C9.34781 19.4434 9.30769 19.4543 9.30769 19.4505C9.30769 19.4468 9.37313 19.3198 9.45656 19.1636C9.91069 18.3135 10.3684 17.2781 10.6011 16.5589C10.6301 16.4899 10.6481 16.4282 10.6517 16.4244H10.6519ZM10.0744 16.6132C10.0779 16.617 10.0489 16.6933 10.0125 16.7805C9.69638 17.547 9.28219 18.3827 8.75175 19.3198C8.6175 19.5598 8.50481 19.7522 8.50125 19.7522C8.49769 19.7522 8.38856 19.6868 8.25769 19.6069C7.48763 19.1346 6.80456 18.5533 6.35794 17.9903L6.29231 17.9104L6.62306 17.8194C7.80731 17.4962 8.81363 17.1474 9.81263 16.7188C9.95438 16.6607 10.0708 16.6132 10.0744 16.6132ZM13.6635 17.8667C13.6673 17.9503 13.4818 18.6986 13.3292 19.2399C13.2021 19.6941 13.0931 20.0499 12.8933 20.6784C12.8063 20.9548 12.7301 21.1834 12.7264 21.1834C12.7226 21.1834 12.7009 21.18 12.6789 21.1727C11.6001 20.9764 10.6337 20.7039 9.72544 20.3408C9.47119 20.2389 9.108 20.0754 9.08606 20.0573C9.07894 20.0499 9.29681 19.9483 9.573 19.8285C11.226 19.1055 12.9405 18.2844 13.5293 17.9321C13.5983 17.8884 13.6526 17.8667 13.6635 17.8667ZM5.37694 18.15C5.38425 18.1575 4.92281 18.8222 4.27631 19.7269C4.05094 20.0428 3.78938 20.4133 3.69131 20.5513C3.57787 20.7114 3.46766 20.8737 3.36075 21.0383L3.20813 21.2745L3.04463 21.1363C2.85206 20.9764 2.51794 20.6349 2.36888 20.4461C2.0565 20.0574 1.84575 19.6468 1.76231 19.2728C1.72219 19.0984 1.72219 19.011 1.75856 19.0003C2.40226 18.8465 3.04652 18.6951 3.69131 18.546C4.12523 18.4461 4.55874 18.3444 4.99181 18.2409C5.20256 18.1901 5.37338 18.15 5.37694 18.15ZM5.84194 18.3281L5.95819 18.4588C6.48131 19.0438 7.01531 19.4762 7.662 19.8538C7.77825 19.9194 7.86544 19.9776 7.85813 19.9813C7.83281 19.9993 5.613 20.7876 4.58494 21.1436C4.23336 21.2682 3.88097 21.3905 3.52781 21.5106C3.52425 21.5106 3.49144 21.4886 3.45525 21.4633L3.38981 21.4161L3.49519 21.2634C3.83644 20.7694 4.26525 20.2281 5.19881 19.1019L5.84194 18.3281ZM8.74106 20.4024C8.74463 20.3987 8.90438 20.4568 9.10069 20.5297C9.573 20.7077 9.94706 20.8204 10.4484 20.9475C11.0661 21.1037 11.9597 21.2563 12.4866 21.3C12.5664 21.3071 12.6099 21.3144 12.5955 21.3253C12.57 21.3398 12.036 21.5179 11.6438 21.6413C11.0188 21.8376 9.11156 22.4006 7.55663 22.8474C7.37418 22.9008 7.19136 22.953 7.00819 23.0038C6.97181 23.0109 6.85181 22.9781 6.85181 22.9637C6.85181 22.9566 6.939 22.8439 7.04438 22.7203C7.5675 22.0954 8.08706 21.3979 8.51944 20.7368C8.63944 20.5551 8.74106 20.406 8.74106 20.4024ZM8.10169 20.4206C8.10525 20.4244 7.84725 20.8384 7.39669 21.5505C7.20431 21.852 6.98981 22.1936 6.91369 22.3134C6.84094 22.4297 6.73181 22.6114 6.67031 22.713L6.56494 22.8983L6.51038 22.8838C6.3795 22.8474 5.46038 22.524 5.217 22.4259C4.92836 22.3111 4.64586 22.1815 4.37063 22.0374C4.08 21.8811 3.71681 21.6486 3.74588 21.6413C3.753 21.6375 4.25081 21.5033 4.85025 21.3398C6.44119 20.9074 7.32413 20.6569 7.90181 20.4752C8.00719 20.4424 8.09794 20.4171 8.1015 20.4208L8.10169 20.4206ZM12.6246 21.4813H12.6283C12.6428 21.5179 12.0542 23.1525 11.8397 23.6683C11.7926 23.7846 11.7744 23.8138 11.7489 23.8101C11.6873 23.8063 10.8336 23.6867 10.314 23.6104C9.4095 23.4724 7.89075 23.2071 7.50956 23.1199L7.42219 23.1017L7.9635 22.9781C9.126 22.7166 9.6855 22.575 10.2523 22.4006C10.9842 22.1768 11.6993 21.9012 12.3921 21.5758C12.5046 21.5252 12.5991 21.4849 12.6246 21.4813Z" fill="url(#paint0_linear_1_29)"/>
<path d="M9.92531 0.0001875C9.84544 -0.0106875 8.55563 0.454312 7.72388 0.792187C6.60113 1.24987 5.72944 1.68581 5.19169 2.06362C4.99181 2.20537 4.74113 2.45606 4.70119 2.55412C4.68628 2.59359 4.6789 2.6355 4.67944 2.67769L5.16638 3.13894L6.32513 3.50962L9.0825 4.00369L12.2357 4.545L12.2685 4.27256C12.2576 4.27256 12.2503 4.26881 12.2394 4.26881L11.8253 4.20356L11.7418 4.0545C11.313 3.29888 10.8409 2.36156 10.5647 1.7295C10.3506 1.239 10.1469 0.672375 10.0344 0.2655C9.97256 0.018375 9.96544 0.00375 9.92531 0V0.0001875ZM9.86719 0.185438H9.87094C9.8745 0.189187 9.88894 0.291 9.90356 0.410812C9.96544 0.919312 10.0779 1.40981 10.2561 1.94025C10.3903 2.33962 10.3903 2.31806 10.2341 2.27081C9.86363 2.16919 8.2035 1.88213 7.00088 1.71487C6.80832 1.68956 6.64481 1.66425 6.64481 1.6605C6.63038 1.64587 7.51294 1.18463 7.90182 1.00294C8.39944 0.774188 9.76556 0.203625 9.86719 0.185438ZM6.36506 1.81313L6.50681 1.86037C7.27706 2.12194 9.21319 2.49262 10.2814 2.57981C10.4012 2.59069 10.503 2.60156 10.5064 2.60156C10.5101 2.60531 10.4085 2.65969 10.2776 2.72137C9.76181 2.97937 9.195 3.2955 8.80275 3.53888C8.6865 3.61144 8.58113 3.66975 8.5665 3.66975C8.55206 3.66975 8.47575 3.65512 8.39588 3.64406L8.25056 3.62231L7.88719 3.26625C7.44544 2.83603 7.00106 2.40852 6.55407 1.98375L6.36506 1.81313ZM6.21975 1.92581L6.732 2.56519C7.01175 2.91769 7.29525 3.26269 7.35694 3.339C7.41863 3.41531 7.46944 3.477 7.46569 3.48075C7.45125 3.49162 6.72469 3.34987 6.33975 3.26288C5.94375 3.17194 5.78025 3.12825 5.53688 3.05194L5.337 2.9865V2.93587C5.34075 2.69213 5.64956 2.32894 6.1725 1.95863L6.21975 1.92581ZM10.572 2.79769C10.5864 2.79769 10.6046 2.83031 10.6481 2.92838C10.7719 3.20081 11.1568 3.93469 11.2513 4.07644C11.2804 4.12369 11.3312 4.12744 10.8189 4.04381C9.58744 3.84394 9.19144 3.7785 9.19144 3.77138C9.19144 3.76763 9.22781 3.74231 9.27506 3.71681C9.65663 3.50606 10.0416 3.23738 10.3832 2.95031C10.4666 2.88131 10.5429 2.81588 10.5576 2.805C10.5611 2.79769 10.5683 2.79412 10.572 2.79769Z" fill="url(#paint1_linear_1_29)"/>
<path d="M4.72669 2.50312C4.72669 2.50312 4.64681 2.63044 4.72294 2.81944C4.77019 2.93569 4.90819 3.07725 5.06456 3.22256C5.06456 3.22256 6.681 4.79925 6.87731 5.02444C7.77094 6.05625 8.15981 7.07344 8.196 8.47575C8.21794 9.37669 8.04713 10.1687 7.62206 11.0878C6.86644 12.7371 5.27156 14.5573 2.81213 16.5771L3.17175 16.4571C3.40425 16.2827 3.72038 16.0976 4.46156 15.6907C6.1725 14.7532 8.09794 13.8924 10.4593 13.0057C13.8596 11.727 19.4507 10.2304 22.6329 9.74362L22.9637 9.69281L22.9127 9.61275C22.6221 9.16219 22.4222 8.88262 22.1824 8.58469C21.4849 7.72012 20.6387 7.01906 19.6031 6.43781C18.1791 5.64206 16.3373 5.02087 14.0049 4.55962C13.5653 4.47225 12.5989 4.30519 11.8142 4.18537C10.5045 3.98386 9.19665 3.77073 7.89075 3.546C7.46569 3.47325 6.82988 3.36431 6.40856 3.27337C6.1905 3.22612 5.77294 3.12806 5.44594 3.01556C5.18438 2.91375 4.80656 2.81212 4.7265 2.50331L4.72669 2.50312ZM5.664 3.41137C5.66756 3.408 5.72569 3.42975 5.802 3.45506C5.97602 3.51352 6.15172 3.56686 6.32888 3.615C6.48829 3.65885 6.64811 3.70123 6.80831 3.74212C7.02619 3.7965 7.20788 3.84731 7.21144 3.84731C7.23694 3.87281 7.60388 5.04619 7.72744 5.49675C7.77469 5.66737 7.81106 5.81269 7.8075 5.81269C7.80375 5.81644 7.76381 5.75456 7.71656 5.67112C7.2915 4.92281 6.6195 4.16362 5.84194 3.55312C5.74031 3.48056 5.664 3.41512 5.664 3.41137ZM7.45125 3.90562C7.46963 3.90562 7.5495 3.9165 7.64756 3.93825C8.265 4.07625 9.37313 4.287 10.0813 4.407C10.2013 4.42519 10.2958 4.44694 10.2958 4.45406C10.2958 4.46156 10.2523 4.48687 10.1978 4.51594C10.0778 4.57762 9.59475 4.86469 9.43481 4.97344C9.03169 5.2425 8.66831 5.53312 8.40675 5.79469C8.30138 5.90006 8.21063 5.98725 8.21063 5.98725C8.21063 5.98725 8.18888 5.92537 8.1705 5.84925C8.03981 5.34412 7.76738 4.59581 7.52025 4.06894C7.48031 3.9855 7.44769 3.90919 7.44769 3.90206C7.44769 3.90919 7.4475 3.90562 7.45125 3.90562ZM10.5975 4.50487C10.6193 4.51237 10.6556 4.63575 10.7282 4.90819C10.8645 5.45182 10.9232 6.01199 10.9026 6.57206C10.8953 6.72469 10.8879 6.86644 10.8806 6.88462L10.8698 6.92081L10.6809 6.85894C10.2923 6.73556 9.66019 6.55031 9.11888 6.39769C8.81006 6.31406 8.55938 6.23794 8.55938 6.23081C8.55938 6.20887 9.00994 5.75831 9.2025 5.58769C9.56925 5.26425 10.5647 4.49419 10.5975 4.50487ZM10.848 4.54125C10.8589 4.53037 12.3521 4.78819 13.0314 4.91906C13.5366 5.01712 14.2703 5.16975 14.3139 5.18794C14.3355 5.19525 14.2594 5.23856 14.0158 5.34787C13.0568 5.78006 12.3448 6.16875 11.6364 6.64106C11.4512 6.76462 11.2948 6.86644 11.2914 6.86644C11.2877 6.86644 11.2839 6.76106 11.2839 6.63394C11.2839 5.94375 11.1461 5.24606 10.8917 4.65769C10.8662 4.59956 10.8444 4.545 10.848 4.54144V4.54125ZM14.7098 5.30437C14.7206 5.31506 14.6736 5.60944 14.6299 5.78381C14.499 6.32512 14.1467 7.128 13.7145 7.88362C13.638 8.01806 13.569 8.127 13.5617 8.13056C13.5546 8.13431 13.4567 8.07975 13.3438 8.01431C12.9225 7.76719 12.4429 7.53487 11.9198 7.31681C11.7744 7.25494 11.6473 7.20431 11.6438 7.19681C11.6183 7.17525 12.7881 6.40144 13.4055 6.03075C13.8962 5.73281 14.6955 5.28975 14.7098 5.30419V5.30437ZM14.9859 5.34787C15.0186 5.34787 15.6797 5.52937 16.0249 5.63119C16.8786 5.88544 17.8596 6.24506 18.4989 6.53569L18.7641 6.65569L18.5788 6.69919C17.0169 7.05881 15.6799 7.47319 14.3901 7.99612C14.2847 8.03981 14.1902 8.07619 14.1831 8.07619C14.1759 8.07619 14.2121 7.99256 14.2594 7.89094C14.6481 7.06612 14.8988 6.20531 14.9606 5.47125C14.9642 5.40225 14.9751 5.34787 14.9859 5.34787ZM8.40319 6.85912C8.41406 6.84825 8.91881 6.96806 9.19144 7.04437C9.60581 7.16062 10.4848 7.455 10.4848 7.47656C10.4848 7.48031 10.3868 7.56394 10.2705 7.66556C9.79463 8.06156 9.33675 8.47931 8.78813 9.00975C8.62481 9.16594 8.48681 9.29306 8.4795 9.29306C8.472 9.29306 8.46863 9.27131 8.472 9.24225C8.55563 8.63194 8.53763 7.84725 8.42138 7.05169C8.41031 6.94987 8.39963 6.86269 8.40319 6.85912ZM19.0148 6.87C19.0219 6.87731 18.7823 7.25494 18.6296 7.46925C18.4118 7.78181 18.0919 8.196 17.3691 9.10425C17.0505 9.50406 16.7333 9.90487 16.4173 10.3067C16.272 10.4884 16.1522 10.6408 16.1483 10.6408C16.1449 10.6408 16.0976 10.5756 16.0466 10.4957C15.6398 9.88519 15.153 9.35119 14.5753 8.87175C14.4873 8.79723 14.3977 8.72453 14.3066 8.65369C14.2665 8.62462 14.2339 8.59556 14.2339 8.59181C14.2339 8.58112 14.8513 8.31581 15.3201 8.127C16.1413 7.79269 17.2599 7.39312 18.0994 7.13512C18.5389 6.99712 19.0074 6.86269 19.0148 6.87ZM19.2945 6.94256C19.3089 6.939 19.3963 6.98269 19.5015 7.04437C20.3844 7.54931 21.249 8.19975 21.9319 8.868C22.1244 9.057 22.6005 9.55106 22.5932 9.55462C22.5932 9.55462 22.4259 9.56925 22.2298 9.58369C20.7004 9.69994 18.7423 10.0232 16.8606 10.4773C16.7333 10.5064 16.6206 10.5317 16.6134 10.5317C16.6063 10.5317 16.7479 10.3901 16.926 10.2195C18.0304 9.15506 18.5353 8.48306 19.131 7.284C19.2146 7.10625 19.2872 6.95344 19.2945 6.94256C19.2908 6.94256 19.2908 6.94256 19.2945 6.94256ZM11.2041 7.77094C11.2549 7.78181 11.7272 8.00344 12.0833 8.18156C12.4103 8.34487 12.9008 8.60644 12.9261 8.62837C12.9298 8.63194 12.7554 8.72269 12.5409 8.82825C11.9005 9.14662 11.2739 9.492 10.6628 9.86344C10.4884 9.96881 10.3431 10.056 10.3395 10.056C10.3249 10.056 10.3286 10.0414 10.4267 9.86344C10.7537 9.26775 11.0153 8.55562 11.1641 7.86169C11.1786 7.80731 11.1932 7.77094 11.2041 7.77094ZM10.7318 7.85812C10.7426 7.869 10.6193 8.31581 10.5429 8.55937C10.3939 9.02062 10.1432 9.59812 9.89981 10.0342C9.84169 10.1359 9.7545 10.2849 9.70725 10.3684L9.6165 10.5137L9.41306 10.3176C9.17681 10.0888 8.98444 9.94706 8.7375 9.81975C8.63925 9.76912 8.56294 9.72544 8.56294 9.71812C8.56294 9.68906 9.18431 9.126 9.66019 8.71912C10.0014 8.42475 10.7209 7.84725 10.7318 7.85812ZM13.62 9.04612L13.7981 9.16237C14.205 9.42769 14.6844 9.78 15.0514 10.0886C15.2584 10.2592 15.6579 10.6192 15.738 10.7062L15.7815 10.7535L15.4871 10.8371C13.8234 11.2984 12.5374 11.709 11.037 12.2612C10.8698 12.3231 10.7282 12.3737 10.7173 12.3737C10.6956 12.3737 10.6774 12.3919 11.0516 12.0467C12.0107 11.1641 12.8606 10.1904 13.4929 9.24225L13.62 9.04612ZM12.8606 9.23494C12.8681 9.24225 12.3703 9.94331 12.0724 10.3393C11.7163 10.8116 11.0843 11.6036 10.6481 12.1194C10.4666 12.3339 10.3106 12.5119 10.3031 12.5154C10.2923 12.5192 10.2885 12.4648 10.2885 12.381C10.2885 11.9415 10.176 11.4727 9.97988 11.0732C9.89625 10.9061 9.88163 10.8662 9.9 10.848C9.969 10.7861 11.0261 10.1831 11.6944 9.8235C12.1451 9.58369 12.8498 9.22781 12.8606 9.23494ZM8.26875 10.3612C8.27963 10.3612 8.36306 10.4047 8.45775 10.4556C8.67882 10.5761 8.888 10.7172 9.0825 10.8771C9.08981 10.8842 8.99531 10.9607 8.87175 11.0514C8.52675 11.2984 8.00363 11.6946 7.69838 11.9379C7.37869 12.1922 7.36781 12.1993 7.404 12.1449C7.644 11.778 7.76381 11.571 7.89094 11.3057C8.00789 11.059 8.10977 10.8054 8.196 10.5463C8.22506 10.4413 8.26144 10.3612 8.26875 10.3612ZM9.49313 11.3201C9.51113 11.3167 9.53306 11.3494 9.63094 11.4947C9.83794 11.8035 9.99788 12.2177 10.0378 12.5518L10.0453 12.6244L9.5475 12.8171C8.65744 13.1621 7.83638 13.5036 7.28063 13.758C7.07758 13.8532 6.87532 13.9501 6.67388 14.0486C6.49575 14.1394 6.35063 14.2084 6.35063 14.2048C6.35063 14.2013 6.46313 14.1176 6.60113 14.0158C7.6875 13.2276 8.62838 12.3628 9.33319 11.4982C9.4095 11.4075 9.4785 11.3239 9.48563 11.3203L9.49313 11.3201ZM8.92988 11.4583C8.9445 11.4727 8.53031 11.9415 8.247 12.2286C7.54575 12.9441 6.852 13.5036 5.991 14.0484C5.88188 14.1174 5.78381 14.1793 5.77294 14.1864C5.74763 14.2011 5.78006 14.1647 6.15806 13.7542C6.37962 13.5164 6.58937 13.2679 6.78656 13.0095C6.92456 12.8314 6.94988 12.8061 7.14975 12.6645C7.68394 12.2792 8.91544 11.4439 8.92988 11.4583Z" fill="url(#paint2_radial_1_29)"/>
</g>
<defs>
<linearGradient id="paint0_linear_1_29" x1="4.65534" y1="21.6269" x2="6.39245" y2="20.6004" gradientUnits="userSpaceOnUse">
<stop stop-color="#909CA9"/>
<stop offset="1" stop-color="#EDEDEE"/>
</linearGradient>
<linearGradient id="paint1_linear_1_29" x1="4.69512" y1="2.27593" x2="6.09284" y2="2.27593" gradientUnits="userSpaceOnUse">
<stop stop-color="#939FAB"/>
<stop offset="1" stop-color="#DCDEE1"/>
</linearGradient>
<radialGradient id="paint2_radial_1_29" cx="0" cy="0" r="1" gradientUnits="userSpaceOnUse" gradientTransform="translate(11.7636 8.7112) rotate(-171.408) scale(1.80357 3.60739)">
<stop stop-color="#EE352C"/>
<stop offset="1" stop-color="#A91D22"/>
</radialGradient>
<clipPath id="clip0_1_29">
<rect width="24" height="24" fill="white"/>
</clipPath>
</defs>
</svg>
