<svg width="23" height="23" viewBox="0 0 23 23" fill="none" xmlns="http://www.w3.org/2000/svg">
<g clip-path="url(#clip0_1_33)">
<path d="M2.5857 4.72488C2.49814 4.73533 2.41245 4.75788 2.33109 4.79191L0.589195 5.51066C0.415453 5.58309 0.266907 5.70511 0.162117 5.86148C0.0573273 6.01785 0.000939796 6.20163 0 6.38987L0 16.6105C0.00095465 16.7987 0.0573687 16.9825 0.162192 17.1389C0.267016 17.2953 0.415599 17.4173 0.589375 17.4897L2.33109 18.2203C2.49463 18.2888 2.67396 18.3105 2.84912 18.283C3.02427 18.2556 3.18837 18.1801 3.32314 18.0649L3.71342 17.7294C3.63422 17.7863 3.54086 17.8202 3.44362 17.8274C3.34637 17.8346 3.24904 17.8148 3.16233 17.7702C3.07562 17.7256 3.00291 17.6579 2.95221 17.5746C2.90151 17.4913 2.87479 17.3957 2.875 17.2982V5.7022C2.87479 5.6047 2.90151 5.50903 2.95221 5.42574C3.00291 5.34245 3.07562 5.27477 3.16233 5.23017C3.24904 5.18557 3.34637 5.16578 3.44362 5.17298C3.54086 5.18017 3.63422 5.21408 3.71342 5.27095L3.32314 4.9477C3.22237 4.86155 3.1048 4.79727 2.9779 4.75891C2.85099 4.72056 2.71732 4.70897 2.5857 4.72488Z" fill="#52218A"/>
<path d="M17.0254 0.0747502C16.8057 0.044047 16.5819 0.0646006 16.3715 0.134802C16.1611 0.205004 15.9697 0.322949 15.8125 0.479406L0.958453 16.9028C0.88306 16.9838 0.785127 17.0403 0.677296 17.0651C0.569465 17.0899 0.456685 17.0817 0.353515 17.0418C0.250345 17.0018 0.16152 16.9319 0.0985054 16.8409C0.0354908 16.75 0.00117937 16.6422 0 16.5316L0 16.6107C0.000989886 16.7989 0.0574204 16.9827 0.162242 17.139C0.267063 17.2953 0.415627 17.4173 0.589375 17.4897L2.33109 18.2203C2.49463 18.2888 2.67396 18.3105 2.84912 18.283C3.02427 18.2556 3.18837 18.1801 3.32314 18.0649L3.71342 17.7294L21.5169 3.13159C21.6498 3.02273 21.811 2.95384 21.9815 2.93292C22.1521 2.91201 22.3251 2.93992 22.4804 3.01343C22.6357 3.08693 22.767 3.20301 22.859 3.34817C22.951 3.49333 22.9999 3.66161 23 3.83345V3.77829C23.0001 3.50746 22.9237 3.24211 22.7796 3.01281C22.6355 2.7835 22.4296 2.59957 22.1855 2.4822L17.4466 0.20143C17.3135 0.137848 17.1715 0.0951215 17.0254 0.0747502Z" fill="#6C33AF"/>
<path d="M2.67213 4.71464C2.55466 4.71913 2.43902 4.74532 2.33109 4.79191L0.589195 5.51066C0.415453 5.58309 0.266907 5.70511 0.162117 5.86148C0.0573273 6.01785 0.000939796 6.20164 0 6.38987L0 6.46911C0.00117937 6.35848 0.0354908 6.25074 0.0985054 6.1598C0.16152 6.06886 0.250345 5.99889 0.353515 5.95893C0.456685 5.91897 0.569465 5.91085 0.677296 5.93562C0.785127 5.96038 0.88306 6.0169 0.958453 6.09788L15.8125 22.521C16.0229 22.7303 16.2929 22.8694 16.5854 22.9192C16.878 22.969 17.1788 22.9269 17.4466 22.7989L22.1855 20.518C22.4295 20.4006 22.6355 20.2167 22.7796 19.9874C22.9237 19.7582 23.0001 19.4929 23 19.2221V19.1669C22.9999 19.3388 22.951 19.507 22.859 19.6522C22.767 19.7973 22.6357 19.9134 22.4804 19.9869C22.3251 20.0604 22.1521 20.0884 21.9815 20.0674C21.811 20.0465 21.6498 19.9776 21.5169 19.8688L3.71342 5.27095L3.32314 4.93584C3.14097 4.78413 2.90901 4.7052 2.67213 4.71464Z" fill="#854CC7"/>
<path d="M17.0254 0.0747519C16.6644 0.0305956 16.3001 0.124919 16.0058 0.338713C16.1343 0.269292 16.2786 0.234424 16.4246 0.237521C16.5706 0.240617 16.7133 0.281574 16.8387 0.35638C16.9641 0.431186 17.068 0.537277 17.1401 0.664267C17.2122 0.791258 17.25 0.934793 17.25 1.08082V21.9246C17.2496 22.0909 17.2 22.2535 17.1075 22.3917C17.0149 22.53 16.8835 22.6378 16.7299 22.7015C16.5762 22.7653 16.4071 22.7822 16.2439 22.75C16.0806 22.7179 15.9305 22.6382 15.8125 22.521C16.0229 22.7303 16.2929 22.8694 16.5854 22.9192C16.878 22.969 17.1788 22.9269 17.4466 22.7989L22.1855 20.5205C22.4296 20.4031 22.6355 20.2192 22.7796 19.9899C22.9237 19.7606 23.0001 19.4952 23 19.2244V3.77631C23.0002 3.50543 22.9238 3.24 22.7797 3.01063C22.6356 2.78125 22.4296 2.59727 22.1855 2.47987L17.4466 0.201252C17.3135 0.137732 17.1714 0.0950662 17.0254 0.0747519ZM16.0058 0.338713C15.935 0.376204 15.8699 0.423577 15.8125 0.479408C15.8729 0.427222 15.9376 0.38016 16.0058 0.338713Z" fill="#B179F1"/>
<path opacity="0.25" fill-rule="evenodd" clip-rule="evenodd" d="M16.9167 0.0625294C16.7327 0.0505597 16.5481 0.0741075 16.3729 0.131889C16.1617 0.202733 15.9699 0.321702 15.8125 0.479404L8.1747 8.92723L3.71342 5.27095L3.32314 4.93583C3.20572 4.83531 3.06572 4.7647 2.91509 4.73003C2.76446 4.69536 2.60767 4.69766 2.45813 4.73674C2.41432 4.74641 2.37172 4.76087 2.33109 4.77987L0.589195 5.51065C0.42615 5.57795 0.284854 5.68896 0.180888 5.83145C0.0769224 5.97393 0.0143256 6.14237 0 6.31817L0 16.6824C0.0143733 16.8582 0.0770116 17.0266 0.181008 17.169C0.285005 17.3115 0.426321 17.4224 0.589375 17.4897L2.33109 18.2085C2.37172 18.2274 2.41432 18.2419 2.45813 18.2516C2.60763 18.2907 2.76439 18.2931 2.91502 18.2585C3.06565 18.224 3.20568 18.1535 3.32314 18.053L3.71342 17.7294L8.1747 14.0735L15.8125 22.521C16.0029 22.7111 16.2428 22.844 16.505 22.9046C16.8218 22.9768 17.1537 22.9395 17.4466 22.7989L22.1855 20.5205C22.4296 20.4031 22.6355 20.2192 22.7796 19.9899C22.9237 19.7606 23.0001 19.4952 23 19.2244V3.77631C23.0002 3.50542 22.9238 3.24 22.7797 3.01062C22.6356 2.78125 22.4296 2.59726 22.1855 2.47987L17.4466 0.201248C17.2804 0.121388 17.1005 0.0742318 16.9165 0.0623498L16.9167 0.0625294ZM17.25 6.6319V16.3685L11.3108 11.5004L17.25 6.6319ZM2.875 8.21082L5.84829 11.5004L2.875 14.7899V8.21082Z" fill="url(#paint0_linear_1_33)"/>
</g>
<defs>
<linearGradient id="paint0_linear_1_33" x1="8.625" y1="-1.79934e-06" x2="8.625" y2="17.1602" gradientUnits="userSpaceOnUse">
<stop stop-color="white"/>
<stop offset="1" stop-color="white" stop-opacity="0"/>
</linearGradient>
<clipPath id="clip0_1_33">
<rect width="23" height="23" fill="white"/>
</clipPath>
</defs>
</svg>
