<svg width="23" height="23" viewBox="0 0 23 23" fill="none" xmlns="http://www.w3.org/2000/svg">
<g clip-path="url(#clip0_1_40)">
<mask id="mask0_1_40" style="mask-type:luminance" maskUnits="userSpaceOnUse" x="0" y="0" width="23" height="23">
<path d="M16.2463 22.8738C16.4286 22.9454 16.6235 22.9785 16.8191 22.9709C17.0146 22.9633 17.2065 22.9153 17.3828 22.8298L22.0997 20.5422C22.3426 20.4244 22.5476 20.2397 22.691 20.0097C22.8345 19.7796 22.9106 19.5133 22.9105 19.2416V3.73051C22.9105 3.45878 22.8344 3.19257 22.691 2.96249C22.5476 2.73241 22.3426 2.54781 22.0997 2.42993L17.3829 0.142333C17.1163 0.0131115 16.8165 -0.0294268 16.525 0.0206035C16.2334 0.0706337 15.9645 0.210759 15.7554 0.421593L6.72544 8.72468L2.79208 5.71549C2.61465 5.57974 2.39568 5.51089 2.17315 5.52086C1.95061 5.53084 1.73857 5.61901 1.5738 5.77009L0.312301 6.9267C-0.103675 7.30801 -0.104125 7.96759 0.311223 8.34953L3.72232 11.486L0.311223 14.6225C-0.104125 15.0045 -0.103675 15.664 0.312301 16.0454L1.5738 17.2019C1.73856 17.353 1.9506 17.4412 2.17313 17.4512C2.39566 17.4612 2.61464 17.3923 2.79208 17.2566L6.72544 14.2473L15.7554 22.5504C15.895 22.6913 16.0621 22.8015 16.2463 22.8738ZM17.1864 6.24412L10.3347 11.486L17.1864 16.7279V6.24412Z" fill="white"/>
</mask>
<g mask="url(#mask0_1_40)">
<path d="M22.1137 2.43332L17.3931 0.142557C17.1265 0.0131911 16.8266 -0.0294598 16.5349 0.0205062C16.2432 0.0704722 15.9741 0.210585 15.7649 0.421455L0.311392 14.6223C-0.104226 15.0044 -0.103687 15.6638 0.31247 16.0452L1.57477 17.2018C1.73968 17.3529 1.95185 17.4411 2.17452 17.4511C2.39718 17.4611 2.61629 17.3922 2.79386 17.2565L21.4034 3.02761C22.0277 2.55031 22.9244 2.99908 22.9244 3.78887V3.73364C22.9244 3.46196 22.8483 3.19581 22.7049 2.96578C22.5615 2.73575 22.3565 2.55119 22.1137 2.43332Z" fill="#0065A9"/>
</g>
<mask id="mask1_1_40" style="mask-type:luminance" maskUnits="userSpaceOnUse" x="0" y="0" width="23" height="23">
<path d="M16.2463 22.8738C16.4286 22.9454 16.6235 22.9785 16.8191 22.9709C17.0146 22.9633 17.2065 22.9153 17.3828 22.8298L22.0997 20.5422C22.3426 20.4244 22.5476 20.2397 22.691 20.0097C22.8345 19.7796 22.9106 19.5133 22.9105 19.2416V3.73051C22.9105 3.45878 22.8344 3.19257 22.691 2.96249C22.5476 2.73241 22.3426 2.54781 22.0997 2.42993L17.3829 0.142333C17.1163 0.0131115 16.8165 -0.0294268 16.525 0.0206035C16.2334 0.0706337 15.9645 0.210759 15.7554 0.421593L6.72544 8.72468L2.79208 5.71549C2.61465 5.57974 2.39568 5.51089 2.17315 5.52086C1.95061 5.53084 1.73857 5.61901 1.5738 5.77009L0.312301 6.9267C-0.103675 7.30801 -0.104125 7.96759 0.311223 8.34953L3.72232 11.486L0.311223 14.6225C-0.104125 15.0045 -0.103675 15.664 0.312301 16.0454L1.5738 17.2019C1.73856 17.353 1.9506 17.4412 2.17313 17.4512C2.39566 17.4612 2.61464 17.3923 2.79208 17.2566L6.72544 14.2473L15.7554 22.5504C15.895 22.6913 16.0621 22.8015 16.2463 22.8738ZM17.1864 6.24412L10.3347 11.486L17.1864 16.7279V6.24412Z" fill="white"/>
</mask>
<g mask="url(#mask1_1_40)">
<path d="M22.1137 20.5385L17.3931 22.8292C17.1265 22.9585 16.8266 23.0011 16.5349 22.9512C16.2432 22.9012 15.9741 22.7611 15.7649 22.5503L0.311392 8.34945C-0.104226 7.96751 -0.103687 7.30793 0.31247 6.92662L1.57477 5.77001C1.73969 5.6189 1.95187 5.53072 2.17453 5.52074C2.39719 5.51077 2.6163 5.57964 2.79386 5.71541L21.4034 19.9442C22.0277 20.4215 22.9244 19.9727 22.9244 19.1828V19.2381C22.9244 19.5098 22.8483 19.776 22.7049 20.006C22.5615 20.236 22.3565 20.4206 22.1137 20.5385Z" fill="#007ACC"/>
</g>
<mask id="mask2_1_40" style="mask-type:luminance" maskUnits="userSpaceOnUse" x="0" y="0" width="23" height="23">
<path d="M16.2463 22.8738C16.4286 22.9454 16.6235 22.9785 16.8191 22.9709C17.0146 22.9633 17.2065 22.9153 17.3828 22.8298L22.0997 20.5422C22.3426 20.4244 22.5476 20.2397 22.691 20.0097C22.8345 19.7796 22.9106 19.5133 22.9105 19.2416V3.73051C22.9105 3.45878 22.8344 3.19257 22.691 2.96249C22.5476 2.73241 22.3426 2.54781 22.0997 2.42993L17.3829 0.142333C17.1163 0.0131115 16.8165 -0.0294268 16.525 0.0206035C16.2334 0.0706337 15.9645 0.210759 15.7554 0.421593L6.72544 8.72468L2.79208 5.71549C2.61465 5.57974 2.39568 5.51089 2.17315 5.52086C1.95061 5.53084 1.73857 5.61901 1.5738 5.77009L0.312301 6.9267C-0.103675 7.30801 -0.104125 7.96759 0.311223 8.34953L3.72232 11.486L0.311223 14.6225C-0.104125 15.0045 -0.103675 15.664 0.312301 16.0454L1.5738 17.2019C1.73856 17.353 1.9506 17.4412 2.17313 17.4512C2.39566 17.4612 2.61464 17.3923 2.79208 17.2566L6.72544 14.2473L15.7554 22.5504C15.895 22.6913 16.0621 22.8015 16.2463 22.8738ZM17.1864 6.24412L10.3347 11.486L17.1864 16.7279V6.24412Z" fill="white"/>
</mask>
<g mask="url(#mask2_1_40)">
<path d="M17.3783 22.831C17.1116 22.9603 16.8117 23.0029 16.52 22.9529C16.2282 22.9029 15.9591 22.7628 15.7499 22.5519C16.2782 23.0843 17.1818 22.7072 17.1818 21.954V1.02078C17.1818 0.267578 16.2782 -0.109567 15.7499 0.422964C15.9591 0.212054 16.2282 0.0718902 16.5199 0.0218607C16.8117 -0.0281687 17.1116 0.0144091 17.3783 0.143705L22.0981 2.4313C22.3411 2.54912 22.5461 2.73369 22.6896 2.96377C22.8332 3.19386 22.9093 3.46011 22.9093 3.73189V19.243C22.9093 19.7977 22.594 20.3033 22.0981 20.5436L17.3783 22.831Z" fill="#1F9CF0"/>
</g>
</g>
<defs>
<clipPath id="clip0_1_40">
<rect width="23" height="23" fill="white"/>
</clipPath>
</defs>
</svg>
